# xmcd
#
# Track frame offsets:
#	150
#	16781
#	34522
#	47280
#	72083
#	84970
#	111258
#	130540
#	147098
#	163194
#	187015
#	199754
#	212498
#	243410
#	265825
#	281999
#	300048
#	308214
#
# Disc length: 4429 seconds
#
# Revision: 0
# Processed by: cddbd v1.5.2PL0 Copyright (c) Steve Scherf et al.
# Submitted via: EasyCDDAExtractor 11.5.3.1
#
DISCID=ea114b12
DTITLE=Various Artist - Live at the Café Au Go Go
DYEAR=1965
DGENRE=Blues
TTITLE0=Bukka White - I'm Going Home
TTITLE1=Bukka White - Aberdeen (First Set)
TTITLE2=Bukka White - Old Folks Twist
TTITLE3=Bukka White - Please Write My Mother
TTITLE4=Bukka White - Going to New Orleans (First Set)
TTITLE5=Bukka White - Jitterbug Swing
TTITLE6=Bukka White - Saturday Night Blues
TTITLE7=Bukka White - Old Man John
TTITLE8=Bukka White - Aberdeen (Second Set)
TTITLE9=Bukka White - Going to New Orleans (Second Set)
TTITLE10=Bukka White - Midnight Blues
TTITLE11=Skip James - Roadhouse Blues
TTITLE12=Skip James - I'm Worried
TTITLE13=Skip James - Hard Head
TTITLE14=Skip James - Cruel Jane
TTITLE15=Skip James - Cherry Bough
TTITLE16=Skip James - No Special Rider
TTITLE17=Skip James - Would You Like to Be My Baby
EXTD=
EXTT0=
EXTT1=
EXTT2=
EXTT3=
EXTT4=
EXTT5=
EXTT6=
EXTT7=
EXTT8=
EXTT9=
EXTT10=
EXTT11=
EXTT12=
EXTT13=
EXTT14=
EXTT15=
EXTT16=
EXTT17=
PLAYORDER=
